# xmcd
#
# Track frame offsets:
#	150
#	15147
#	34352
#	51614
#	64511
#	76795
#	97487
#	116755
#	132559
#	146902
#	162671
#	176988
#	195037
#
# Disc length: 2857 seconds
#
# Revision: 0
# Processed by: cddbd v1.5.2PL0 Copyright (c) Steve Scherf et al.
# Submitted via: EasyCDDAExtractor 16.0.6.1
#
DISCID=be0b270d
DTITLE=Chris LeDoux - The Ultimate Collection [Disc 1]
DYEAR=2006
DGENRE=Country
TTITLE0=Horsepower
TTITLE1=This Cowboy's Hat
TTITLE2=Life is a Highway
TTITLE3=He Rides the Wild Horses
TTITLE4=Copenhagen
TTITLE5=Take Me to the Rodeo
TTITLE6=Seventeen
TTITLE7=Hooked on an 8 Second Ride
TTITLE8=Bareback Jack
TTITLE9=Riding for a Fall
TTITLE10=Even Cowboys Like a Little Rock and Roll
TTITLE11=Silence on the Line
TTITLE12=Little Long-Haired Outlaw
EXTD=
EXTT0=
EXTT1=
EXTT2=
EXTT3=
EXTT4=
EXTT5=
EXTT6=
EXTT7=
EXTT8=
EXTT9=
EXTT10=
EXTT11=
EXTT12=
PLAYORDER=
